# xmcd
#
# Track frame offsets: 
#        150
#        25282
#        48799
#        70298
#        96405
#        113727
#        140634
#        165146
#        186418
#        215153
#
# Disc length: 3051 seconds
#
# Revision: 1
# Processed by: cddbd v1.5.2PL0 Copyright (c) Steve Scherf et al.
# Submitted via: ExactAudioCopyFreeDBPlugin 1.0
#
DISCID=8f0be90a
DTITLE=齐秦 - 狼I
DYEAR=1900
DGENRE=Blues
TTITLE0=狼
TTITLE1=原来的我
TTITLE2=太阳雨
TTITLE3=曾几何时
TTITLE4=被遗忘的
TTITLE5=垭口
TTITLE6=不必勉强
TTITLE7=异乡游子
TTITLE8=岁月的休止符
TTITLE9=狂想
EXTD=
EXTT0=
EXTT1=
EXTT2=
EXTT3=
EXTT4=
EXTT5=
EXTT6=
EXTT7=
EXTT8=
EXTT9=
PLAYORDER=
